<svg width="85" height="75" viewBox="0 0 85 75" fill="none" xmlns="http://www.w3.org/2000/svg">
<rect y="0.5" width="85" height="74" rx="12" fill="#F6EBFC"/>
<g clip-path="url(#clip0_2594_5934)">
<path d="M52.2828 42.8488C52.7123 42.4409 53.0543 41.9499 53.288 41.4057C53.5217 40.8615 53.6423 40.2754 53.6423 39.6831C53.6423 39.0908 53.5217 38.5047 53.288 37.9604C53.0543 37.4162 52.7123 36.9252 52.2828 36.5174C51.4036 35.6829 50.2378 35.2177 49.0257 35.2177C47.8136 35.2177 46.6477 35.6829 45.7685 36.5174L42.5 39.7859L39.2314 36.5174C38.3522 35.6829 37.1863 35.2177 35.9742 35.2177C34.7621 35.2177 33.5963 35.6829 32.7171 36.5174C32.2876 36.9252 31.9456 37.4162 31.7119 37.9604C31.4782 38.5047 31.3577 39.0908 31.3577 39.6831C31.3577 40.2754 31.4782 40.8615 31.7119 41.4057C31.9456 41.9499 32.2876 42.4409 32.7171 42.8488L42.5 52.3574L52.2828 42.8488ZM42.5 31.7859C43.7124 31.7859 44.8751 31.3043 45.7324 30.447C46.5898 29.5897 47.0714 28.4269 47.0714 27.2145C47.0714 26.0021 46.5898 24.8393 45.7324 23.982C44.8751 23.1247 43.7124 22.6431 42.5 22.6431C41.2875 22.6431 40.1248 23.1247 39.2675 23.982C38.4102 24.8393 37.9285 26.0021 37.9285 27.2145C37.9285 28.4269 38.4102 29.5897 39.2675 30.447C40.1248 31.3043 41.2875 31.7859 42.5 31.7859Z" stroke="#9422AF" stroke-width="2" stroke-linecap="round" stroke-linejoin="round"/>
</g>
<defs>
<clipPath id="clip0_2594_5934">
<rect width="32" height="32" fill="white" transform="translate(26.5 21.5)"/>
</clipPath>
</defs>
</svg>
