<svg width="47" height="47" viewBox="0 0 47 47" fill="none" xmlns="http://www.w3.org/2000/svg">
<rect width="47" height="46.635" rx="10.8092" fill="#424BE0"/>
<mask id="path-2-inside-1_2621_1711" fill="white">
<path d="M27.5712 9.01831C28.2171 9.04434 28.6736 9.63334 28.5956 10.2751L28.2108 13.4353C28.1325 14.0786 27.5454 14.5287 26.8973 14.5369C25.7613 14.5512 24.6349 14.7879 23.5829 15.239C22.1696 15.8451 20.9405 16.8157 20.0194 18.0525C19.2316 19.1104 18.6933 20.3313 18.4408 21.6227C18.4063 21.7992 18.5441 21.9597 18.7239 21.9597H24.6376C25.2849 21.9597 25.8103 22.4843 25.8104 23.1316V25.4871C25.8104 26.1345 25.285 26.6599 24.6376 26.6599H19.0781C19.0095 26.6599 18.9621 26.7297 18.9891 26.7927C19.5972 28.2119 20.5674 29.4444 21.8007 30.366C23.034 31.2875 24.4871 31.8659 26.0135 32.0417C27.5399 32.2176 29.0856 31.985 30.494 31.3679C31.5421 30.9086 32.4869 30.2479 33.2772 29.4275C33.7281 28.9594 34.4611 28.8413 34.9833 29.2283L37.5243 31.1111C38.0424 31.495 38.1564 32.2291 37.7343 32.7166C36.351 34.3136 34.6288 35.5864 32.6893 36.4363C30.3942 37.4419 27.8758 37.8204 25.3885 37.5339C22.9011 37.2474 20.5321 36.3052 18.5223 34.8035C16.5129 33.3018 14.9332 31.2935 13.9423 28.9812C13.6502 28.2996 13.4136 27.5982 13.2312 26.8845C13.1976 26.7531 13.08 26.6599 12.9444 26.6599H10.7762C10.1289 26.6598 9.60437 26.1344 9.60437 25.4871V23.1316C9.60453 22.4844 10.129 21.9598 10.7762 21.9597H12.579C12.7301 21.9597 12.8554 21.8447 12.8718 21.6944C12.874 21.6738 12.8764 21.6532 12.8788 21.6326C13.1735 19.1319 14.1191 16.7535 15.62 14.738C15.8346 14.4499 16.0596 14.1708 16.2943 13.901C16.4636 13.7064 16.3287 13.3943 16.0707 13.3943H13.4432L11.3973 13.3953C11.3295 13.3953 11.265 13.426 11.2309 13.4846C10.9988 13.883 10.7655 14.1465 10.578 14.0525C10.1007 13.8121 9.28702 10.7761 9.01682 9.7207C8.9698 9.53703 9.10898 9.36149 9.29857 9.3609L11.7528 9.35327L12.5419 9.36987L17.62 9.21655H24.5655C24.5823 9.21655 24.599 9.2151 24.6155 9.21227C25.5894 9.04519 26.5801 8.97879 27.5712 9.01831Z"/>
</mask>
<path d="M27.5712 9.01831C28.2171 9.04434 28.6736 9.63334 28.5956 10.2751L28.2108 13.4353C28.1325 14.0786 27.5454 14.5287 26.8973 14.5369C25.7613 14.5512 24.6349 14.7879 23.5829 15.239C22.1696 15.8451 20.9405 16.8157 20.0194 18.0525C19.2316 19.1104 18.6933 20.3313 18.4408 21.6227C18.4063 21.7992 18.5441 21.9597 18.7239 21.9597H24.6376C25.2849 21.9597 25.8103 22.4843 25.8104 23.1316V25.4871C25.8104 26.1345 25.285 26.6599 24.6376 26.6599H19.0781C19.0095 26.6599 18.9621 26.7297 18.9891 26.7927C19.5972 28.2119 20.5674 29.4444 21.8007 30.366C23.034 31.2875 24.4871 31.8659 26.0135 32.0417C27.5399 32.2176 29.0856 31.985 30.494 31.3679C31.5421 30.9086 32.4869 30.2479 33.2772 29.4275C33.7281 28.9594 34.4611 28.8413 34.9833 29.2283L37.5243 31.1111C38.0424 31.495 38.1564 32.2291 37.7343 32.7166C36.351 34.3136 34.6288 35.5864 32.6893 36.4363C30.3942 37.4419 27.8758 37.8204 25.3885 37.5339C22.9011 37.2474 20.5321 36.3052 18.5223 34.8035C16.5129 33.3018 14.9332 31.2935 13.9423 28.9812C13.6502 28.2996 13.4136 27.5982 13.2312 26.8845C13.1976 26.7531 13.08 26.6599 12.9444 26.6599H10.7762C10.1289 26.6598 9.60437 26.1344 9.60437 25.4871V23.1316C9.60453 22.4844 10.129 21.9598 10.7762 21.9597H12.579C12.7301 21.9597 12.8554 21.8447 12.8718 21.6944C12.874 21.6738 12.8764 21.6532 12.8788 21.6326C13.1735 19.1319 14.1191 16.7535 15.62 14.738C15.8346 14.4499 16.0596 14.1708 16.2943 13.901C16.4636 13.7064 16.3287 13.3943 16.0707 13.3943H13.4432L11.3973 13.3953C11.3295 13.3953 11.265 13.426 11.2309 13.4846C10.9988 13.883 10.7655 14.1465 10.578 14.0525C10.1007 13.8121 9.28702 10.7761 9.01682 9.7207C8.9698 9.53703 9.10898 9.36149 9.29857 9.3609L11.7528 9.35327L12.5419 9.36987L17.62 9.21655H24.5655C24.5823 9.21655 24.599 9.2151 24.6155 9.21227C25.5894 9.04519 26.5801 8.97879 27.5712 9.01831Z" fill="white"/>
<path d="M27.5712 9.01831L27.582 8.7483L27.5819 8.7483L27.5712 9.01831ZM28.5956 10.2751L28.8638 10.3078L28.8638 10.3078L28.5956 10.2751ZM28.2108 13.4353L28.4791 13.468L28.4791 13.468L28.2108 13.4353ZM26.8973 14.5369L26.8939 14.2667H26.8939L26.8973 14.5369ZM23.5829 15.239L23.4764 14.9907L23.4764 14.9907L23.5829 15.239ZM20.0194 18.0525L19.8027 17.8911L19.8027 17.8911L20.0194 18.0525ZM25.8104 23.1316H26.0807V23.1315L25.8104 23.1316ZM18.9891 26.7927L18.7407 26.8992L18.7407 26.8992L18.9891 26.7927ZM21.8007 30.366L21.6389 30.5824L21.8007 30.366ZM26.0135 32.0417L25.9826 32.3102L25.9826 32.3102L26.0135 32.0417ZM30.494 31.3679L30.6025 31.6154L30.6025 31.6154L30.494 31.3679ZM33.2772 29.4275L33.4718 29.615L33.4718 29.615L33.2772 29.4275ZM34.9833 29.2283L34.8224 29.4454L34.8224 29.4454L34.9833 29.2283ZM37.5243 31.1111L37.6852 30.894L37.6852 30.894L37.5243 31.1111ZM37.7343 32.7166L37.9385 32.8935L37.9385 32.8935L37.7343 32.7166ZM32.6893 36.4363L32.7978 36.6838L32.7978 36.6838L32.6893 36.4363ZM25.3885 37.5339L25.3576 37.8024H25.3576L25.3885 37.5339ZM18.5223 34.8035L18.3606 35.0199L18.3606 35.0199L18.5223 34.8035ZM13.9423 28.9812L13.6939 29.0876L13.6939 29.0876L13.9423 28.9812ZM10.7762 26.6599L10.7762 26.9301H10.7762V26.6599ZM9.60437 23.1316L9.33414 23.1315V23.1316H9.60437ZM10.7762 21.9597V21.6895H10.7762L10.7762 21.9597ZM12.8788 21.6326L12.6104 21.6009L12.6104 21.6009L12.8788 21.6326ZM15.62 14.738L15.4033 14.5766L15.4033 14.5766L15.62 14.738ZM13.4432 13.3943V13.1241H13.4431L13.4432 13.3943ZM11.3973 13.3953L11.3974 13.6655H11.3975L11.3973 13.3953ZM10.578 14.0525L10.4564 14.2938L10.4569 14.294L10.578 14.0525ZM11.7528 9.35327L11.7585 9.08302L11.752 9.08304L11.7528 9.35327ZM12.5419 9.36987L12.5362 9.6404L12.55 9.63998L12.5419 9.36987ZM17.62 9.21655V8.9462L17.6118 8.94645L17.62 9.21655ZM24.6155 9.21227L24.5699 8.94593L24.6155 9.21227ZM12.8718 21.6944L12.6031 21.6651L12.8718 21.6944ZM11.2309 13.4846L11.4644 13.6207L11.2309 13.4846ZM13.2312 26.8845L12.9694 26.9514L13.2312 26.8845ZM18.4408 21.6227L18.1756 21.5709L18.4408 21.6227ZM27.5712 9.01831L27.5603 9.28832C28.0336 9.30739 28.3882 9.74211 28.3273 10.2425L28.5956 10.2751L28.8638 10.3078C28.9591 9.52456 28.4007 8.78129 27.582 8.7483L27.5712 9.01831ZM28.5956 10.2751L28.3273 10.2425L27.9426 13.4026L28.2108 13.4353L28.4791 13.468L28.8638 10.3078L28.5956 10.2751ZM28.2108 13.4353L27.9426 13.4026C27.8832 13.8902 27.4295 14.2599 26.8939 14.2667L26.8973 14.5369L26.9008 14.8071C27.6613 14.7975 28.3817 14.2671 28.4791 13.468L28.2108 13.4353ZM26.8973 14.5369L26.8939 14.2667C25.7227 14.2815 24.5611 14.5255 23.4764 14.9907L23.5829 15.239L23.6894 15.4874C24.7086 15.0503 25.8 14.821 26.9008 14.8071L26.8973 14.5369ZM23.5829 15.239L23.4764 14.9907C22.0192 15.6155 20.7521 16.6162 19.8027 17.8911L20.0194 18.0525L20.2361 18.2139C21.1288 17.0152 22.3201 16.0746 23.6894 15.4874L23.5829 15.239ZM20.0194 18.0525L19.8027 17.8911C18.9906 18.9816 18.4358 20.24 18.1756 21.5709L18.4408 21.6227L18.7061 21.6745C18.9508 20.4226 19.4726 19.2392 20.2361 18.2139L20.0194 18.0525ZM18.7239 21.9597V22.2299H24.6376V21.9597V21.6895H18.7239V21.9597ZM24.6376 21.9597V22.2299C25.1359 22.2299 25.5401 22.6338 25.5402 23.1317L25.8104 23.1316L26.0807 23.1315C26.0805 22.3348 25.4339 21.6895 24.6376 21.6895V21.9597ZM25.8104 23.1316H25.5402V25.4871H25.8104H26.0807V23.1316H25.8104ZM25.8104 25.4871H25.5402C25.5402 25.9852 25.1358 26.3897 24.6376 26.3897V26.6599V26.9301C25.4342 26.9301 26.0807 26.2837 26.0807 25.4871H25.8104ZM24.6376 26.6599V26.3897H19.0781V26.6599V26.9301H24.6376V26.6599ZM18.9891 26.7927L18.7407 26.8992C19.3675 28.3619 20.3675 29.6324 21.6389 30.5824L21.8007 30.366L21.9624 30.1495C20.7672 29.2564 19.827 28.0619 19.2375 26.6863L18.9891 26.7927ZM21.8007 30.366L21.6389 30.5824C22.9103 31.5325 24.4086 32.1289 25.9826 32.3102L26.0135 32.0417L26.0445 31.7733C24.5657 31.6029 23.1576 31.0426 21.9624 30.1495L21.8007 30.366ZM26.0135 32.0417L25.9826 32.3102C27.5565 32.4915 29.1503 32.2517 30.6025 31.6154L30.494 31.3679L30.3856 31.1204C29.0209 31.7184 27.5232 31.9436 26.0445 31.7733L26.0135 32.0417ZM30.494 31.3679L30.6025 31.6154C31.6832 31.1419 32.6572 30.4607 33.4718 29.615L33.2772 29.4275L33.0826 29.24C32.3166 30.0352 31.4011 30.6754 30.3856 31.1204L30.494 31.3679ZM33.2772 29.4275L33.4718 29.615C33.8443 29.2283 34.4266 29.1521 34.8224 29.4454L34.9833 29.2283L35.1442 29.0112C34.4955 28.5305 33.612 28.6905 33.0826 29.24L33.2772 29.4275ZM34.9833 29.2283L34.8224 29.4454L37.3634 31.3282L37.5243 31.1111L37.6852 30.894L35.1442 29.0112L34.9833 29.2283ZM37.5243 31.1111L37.3634 31.3282C37.7672 31.6274 37.8396 32.1822 37.53 32.5396L37.7343 32.7166L37.9385 32.8935C38.4732 32.276 38.3176 31.3627 37.6852 30.894L37.5243 31.1111ZM37.7343 32.7166L37.53 32.5396C36.1728 34.1065 34.4833 35.3551 32.5809 36.1888L32.6893 36.4363L32.7978 36.6838C34.7742 35.8177 36.5291 34.5207 37.9385 32.8935L37.7343 32.7166ZM32.6893 36.4363L32.5809 36.1888C30.3295 37.1753 27.8592 37.5465 25.4195 37.2655L25.3885 37.5339L25.3576 37.8024C27.8924 38.0943 30.4589 37.7086 32.7978 36.6838L32.6893 36.4363ZM25.3885 37.5339L25.4195 37.2655C22.9796 36.9844 20.6557 36.0602 18.6841 34.587L18.5223 34.8035L18.3606 35.0199C20.4085 36.5502 22.8226 37.5104 25.3576 37.8024L25.3885 37.5339ZM18.5223 34.8035L18.6841 34.587C16.7128 33.1139 15.1629 31.1435 14.1906 28.8748L13.9423 28.9812L13.6939 29.0876C14.7034 31.4434 16.313 33.4898 18.3606 35.0199L18.5223 34.8035ZM13.9423 28.9812L14.1906 28.8748C13.9042 28.2063 13.672 27.5181 13.493 26.8175L13.2312 26.8845L12.9694 26.9514C13.1551 27.6782 13.3962 28.3929 13.6939 29.0876L13.9423 28.9812ZM12.9444 26.6599V26.3897H10.7762V26.6599V26.9301H12.9444V26.6599ZM10.7762 26.6599L10.7763 26.3897C10.2784 26.3896 9.8746 25.9855 9.8746 25.4871H9.60437H9.33414C9.33414 26.2834 9.97938 26.93 10.7762 26.9301L10.7762 26.6599ZM9.60437 25.4871H9.8746V23.1316H9.60437H9.33414V25.4871H9.60437ZM9.60437 23.1316L9.8746 23.1317C9.87473 22.6336 10.2783 22.23 10.7763 22.2299L10.7762 21.9597L10.7762 21.6895C9.9797 21.6896 9.33434 22.3351 9.33414 23.1315L9.60437 23.1316ZM10.7762 21.9597V22.2299H12.579V21.9597V21.6895H10.7762V21.9597ZM12.8718 21.6944L13.1404 21.7237C13.1426 21.7038 13.1448 21.6839 13.1472 21.6642L12.8788 21.6326L12.6104 21.6009C12.6079 21.6224 12.6055 21.6438 12.6031 21.6651L12.8718 21.6944ZM12.8788 21.6326L13.1472 21.6642C13.4363 19.2104 14.3641 16.8769 15.8367 14.8994L15.62 14.738L15.4033 14.5766C13.874 16.6302 12.9106 19.0533 12.6104 21.6009L12.8788 21.6326ZM15.62 14.738L15.8367 14.8994C16.0472 14.6168 16.2679 14.3431 16.4982 14.0784L16.2943 13.901L16.0904 13.7237C15.8513 13.9985 15.622 14.2829 15.4033 14.5766L15.62 14.738ZM16.0707 13.3943V13.1241H13.4432V13.3943V13.6645H16.0707V13.3943ZM13.4432 13.3943L13.4431 13.1241L11.3972 13.125L11.3973 13.3953L11.3975 13.6655L13.4434 13.6645L13.4432 13.3943ZM11.2309 13.4846L10.9974 13.3486C10.8849 13.5417 10.7844 13.6797 10.7028 13.7562C10.6081 13.8451 10.6291 13.7758 10.6991 13.8109L10.578 14.0525L10.4569 14.294C10.7144 14.4232 10.9459 14.2692 11.0726 14.1503C11.2126 14.019 11.3448 13.826 11.4644 13.6207L11.2309 13.4846ZM10.578 14.0525L10.6996 13.8111C10.7108 13.8168 10.6791 13.8 10.6133 13.696C10.555 13.6041 10.4892 13.4753 10.418 13.3137C10.2759 12.9914 10.1244 12.5666 9.97695 12.1093C9.68267 11.1963 9.41331 10.1798 9.27861 9.65367L9.01682 9.7207L8.75503 9.78772C8.89053 10.3169 9.16312 11.3462 9.46255 12.2751C9.612 12.7387 9.77023 13.1841 9.92343 13.5316C9.99981 13.7049 10.078 13.861 10.1567 13.9852C10.2278 14.0975 10.3258 14.2281 10.4564 14.2938L10.578 14.0525ZM9.29857 9.3609L9.29941 9.63113L11.7536 9.6235L11.7528 9.35327L11.752 9.08304L9.29773 9.09068L9.29857 9.3609ZM11.7528 9.35327L11.7471 9.62344L12.5362 9.64004L12.5419 9.36987L12.5476 9.0997L11.7585 9.0831L11.7528 9.35327ZM12.5419 9.36987L12.55 9.63998L17.6281 9.48666L17.62 9.21655L17.6118 8.94645L12.5337 9.09977L12.5419 9.36987ZM17.62 9.21655V9.48678H24.5655V9.21655V8.94632H17.62V9.21655ZM24.6155 9.21227L24.6612 9.47861C25.6168 9.31467 26.5886 9.24957 27.5604 9.28833L27.5712 9.01831L27.5819 8.7483C26.5717 8.70801 25.5621 8.7757 24.5699 8.94593L24.6155 9.21227ZM24.5655 9.21655V9.48678C24.5978 9.48678 24.6298 9.48399 24.6612 9.47861L24.6155 9.21227L24.5699 8.94593C24.5682 8.94622 24.5667 8.94632 24.5655 8.94632V9.21655ZM9.01682 9.7207L9.27861 9.65367C9.27752 9.64944 9.27783 9.64708 9.27814 9.6457C9.27854 9.64391 9.27949 9.6416 9.28139 9.63918C9.28331 9.63675 9.28575 9.63477 9.28842 9.63344C9.29077 9.63227 9.29414 9.63115 9.29941 9.63113L9.29857 9.3609L9.29773 9.09068C8.93665 9.0918 8.6632 9.42905 8.75503 9.78772L9.01682 9.7207ZM16.2943 13.901L16.4982 14.0784C16.8113 13.7184 16.5731 13.1241 16.0707 13.1241V13.3943V13.6645C16.0787 13.6645 16.0817 13.6664 16.0836 13.6677C16.0867 13.6699 16.0916 13.6747 16.0952 13.6831C16.0989 13.6914 16.0998 13.6997 16.099 13.706C16.0983 13.711 16.0965 13.7166 16.0904 13.7237L16.2943 13.901ZM12.579 21.9597V22.2299C12.8715 22.2299 13.1095 22.0076 13.1404 21.7237L12.8718 21.6944L12.6031 21.6651C12.6013 21.6817 12.5888 21.6895 12.579 21.6895V21.9597ZM11.3973 13.3953L11.3973 13.125C11.2515 13.125 11.0884 13.1923 10.9974 13.3486L11.2309 13.4846L11.4644 13.6207C11.4416 13.6597 11.4075 13.6655 11.3974 13.6655L11.3973 13.3953ZM13.2312 26.8845L13.493 26.8175C13.4295 26.569 13.206 26.3897 12.9444 26.3897V26.6599V26.9301C12.954 26.9301 12.9657 26.9371 12.9694 26.9514L13.2312 26.8845ZM19.0781 26.6599V26.3897C18.8217 26.3897 18.635 26.6523 18.7407 26.8992L18.9891 26.7927L19.2375 26.6863C19.2893 26.8072 19.1974 26.9301 19.0781 26.9301V26.6599ZM18.4408 21.6227L18.1756 21.5709C18.1071 21.9215 18.3815 22.2299 18.7239 22.2299V21.9597V21.6895C18.7196 21.6895 18.7166 21.6886 18.7145 21.6876C18.712 21.6864 18.7099 21.6848 18.7083 21.6829C18.7068 21.681 18.7062 21.6795 18.7059 21.6787C18.7058 21.6783 18.7055 21.6772 18.7061 21.6745L18.4408 21.6227Z" fill="#0E145E" mask="url(#path-2-inside-1_2621_1711)"/>
</svg>
