<svg width="85" height="75" viewBox="0 0 85 75" fill="none" xmlns="http://www.w3.org/2000/svg">
<rect y="0.5" width="85" height="74" rx="12" fill="#FF9200"/>
<path d="M35.8505 16.8957C35.7398 16.4231 35.4668 16.0175 35.09 15.7661C34.7131 15.5147 34.2626 15.4376 33.8352 15.5512C33.4914 15.6433 33.1839 15.8572 32.9592 16.1606C32.7346 16.464 32.6049 16.8405 32.5899 17.2331C28.2997 18.7903 25.7564 21.2691 24.3286 24.1097C22.9865 26.7841 22.7357 29.5783 22.7005 31.7197L21.5851 33.2671C21.158 33.8603 20.846 34.5452 20.6689 35.2789C20.4919 36.0126 20.4535 36.7791 20.5562 37.5301C20.6589 38.2811 20.9005 39.0003 21.2658 39.6424C21.6311 40.2845 22.1121 40.8356 22.6785 41.2609L42.6267 56.2487C45.4474 58.368 48.7745 59.5004 52.1795 59.5H57.0373C58.0175 59.5006 58.9882 59.2866 59.8938 58.8701C60.7995 58.4536 61.6224 57.8429 62.3155 57.0728C63.0086 56.3026 63.5583 55.3883 63.9331 54.3819C64.3079 53.3756 64.5006 52.2971 64.5 51.208C64.5 46.5388 60.9799 43.3242 57.9349 41.6912C57.0219 41.2023 56.2673 40.5667 55.7656 39.7453L50.0828 28.8815C50.455 28.7724 50.7803 28.5202 51.001 28.1698C51.2218 27.8193 51.3236 27.3934 51.2885 26.9674C51.2466 26.4812 51.034 26.0328 50.6968 25.7194C50.3595 25.406 49.9248 25.2527 49.4866 25.2929C42.9963 25.8649 37.1683 22.5941 35.8505 16.8957ZM46.2833 28.9182L52.9363 41.6399L52.9891 41.7327C53.9132 43.2802 55.2178 44.3093 56.4983 44.9963C58.1923 45.9008 59.585 47.1182 60.4034 48.4969H52.1091C50.6837 48.497 49.2909 48.0236 48.1093 47.1377L44.0348 44.082L44.9676 43.4855C45.8514 42.918 46.4962 41.9837 46.7602 40.8881C47.0243 39.7925 46.886 38.6253 46.3757 37.643L44.8752 34.7534C44.3645 33.7714 43.5236 33.055 42.5376 32.7616C41.5516 32.4682 40.5011 32.6219 39.617 33.1889L34.1652 36.6847L31.5009 34.6874L31.7649 34.5163C32.6487 33.9488 33.2935 33.0145 33.5575 31.9189C33.8216 30.8233 33.6832 29.6561 33.1729 28.6738L30.0202 22.599C30.9729 21.89 32.1631 21.2398 33.6636 20.6995C36.0463 25.6963 41.0603 28.4024 46.2877 28.9182M28.4604 32.4066L26.0469 30.5976C26.1525 29.038 26.4473 27.4148 27.2107 25.8992C27.3207 25.6775 27.4432 25.4567 27.5781 25.2367L30.3194 30.5072C30.3557 30.5768 30.3792 30.6537 30.3886 30.7335C30.3981 30.8132 30.3932 30.8942 30.3744 30.9719C30.3556 31.0496 30.3232 31.1224 30.279 31.1861C30.2349 31.2498 30.1798 31.3032 30.117 31.3432L28.4604 32.4066ZM40.9943 41.8012L37.2101 38.9655L41.2693 36.3644C41.3954 36.2837 41.5451 36.2617 41.6857 36.3034C41.8264 36.3451 41.9464 36.4471 42.0195 36.5869L43.52 39.4764C43.5926 39.6165 43.6124 39.7829 43.5748 39.9391C43.5373 40.0954 43.4456 40.2288 43.3197 40.31L40.9943 41.8012ZM24.1636 35.5577L25.0744 34.2914L46.2657 50.1763C47.9924 51.4714 50.028 52.1635 52.1113 52.1638H61.1119C60.9153 53.2023 60.4029 54.134 59.6609 54.8023C58.9189 55.4705 57.9924 55.8345 57.0373 55.8331H52.1795C49.4334 55.834 46.7499 54.9213 44.4748 53.2125L24.5266 38.2223C24.3377 38.0806 24.1773 37.897 24.0555 37.683C23.9337 37.469 23.8531 37.2292 23.8188 36.9789C23.7844 36.7286 23.7972 36.473 23.8561 36.2284C23.9151 35.9838 24.0212 35.7555 24.1636 35.5577Z" fill="#FAFAFA" fill-opacity="0.8"/>
</svg>
