<svg width="28" height="29" viewBox="0 0 28 29" fill="none" xmlns="http://www.w3.org/2000/svg">
<g clip-path="url(#clip0_2828_12354)">
<path d="M15.1135 1.61209C14.8773 1.82209 13.0398 5.46865 13.0398 5.46865L11.6726 10.9833L16.9926 10.4955C16.9926 10.4955 21.4179 2.26616 21.5076 2.07584C21.6673 1.73022 21.7526 1.58803 21.1423 1.58803C20.532 1.58584 15.3345 1.41522 15.1135 1.61209Z" fill="#176CC7"/>
<path d="M17.8675 10.1542C17.6028 10.012 9.80657 9.8895 9.62282 10.1542C9.45657 10.3948 9.55063 11.657 9.61407 11.8079C9.72782 12.0704 12.2325 13.0876 12.2325 13.0876V13.7198C12.2325 13.7198 12.4031 13.7898 13.8644 13.7898C15.3256 13.7898 15.6166 13.7154 15.6166 13.7154L15.6275 13.1073C15.6275 13.1073 17.8019 11.9873 17.9156 11.832C18.0163 11.7029 18.1322 10.2964 17.8675 10.1542ZM15.6056 12.1536C15.6056 12.1536 15.6363 11.8517 15.4853 11.7773C15.3344 11.7007 12.7247 11.7139 12.5191 11.7248C12.3134 11.7357 12.3134 12.1032 12.3134 12.1032L10.6794 11.2392L10.6509 10.9504L16.7628 10.9832L16.7759 11.3726L15.6056 12.1536Z" fill="#FCC11A"/>
<path d="M12.9149 12.0247C12.7093 12.0247 12.554 12.2565 12.554 12.624C12.554 12.9697 12.6721 13.254 12.9324 13.2387C13.1796 13.2256 13.2977 12.9128 13.2802 12.6197C13.2583 12.2762 13.1752 12.0247 12.9149 12.0247Z" fill="#FDFFFF"/>
<path d="M6.41162 20.8292C6.41162 26.0704 11.1607 28.2514 14.3129 28.1573C17.9857 28.0479 21.9363 25.261 21.6104 20.2604C21.3041 15.5682 17.3032 13.3282 13.8513 13.3545C9.83943 13.3829 6.41162 16.2507 6.41162 20.8292Z" fill="#F8932A"/>
<path d="M14.1138 27.2167C14.0592 27.2167 14.0023 27.2167 13.9476 27.2145C12.307 27.1598 10.6401 26.5408 9.45447 25.3923C8.18572 24.163 7.40259 22.6076 7.39822 20.8205C7.38728 16.1261 11.4101 14.4001 13.9979 14.4001H14.0198C17.5263 14.4155 20.556 17.0361 20.6348 20.7308C20.6698 22.3758 19.996 24.117 18.6748 25.4164C17.4432 26.6261 15.6254 27.2167 14.1138 27.2167Z" fill="#FCC11A"/>
<path d="M5.58029 1.49841C5.44248 1.62529 10.7122 11.0097 10.7122 11.0097C10.7122 11.0097 11.5959 11.1234 13.569 11.1409C15.5422 11.1584 16.52 11.0272 16.52 11.0272C16.52 11.0272 12.4228 1.59247 12.1778 1.49841C12.0575 1.45029 10.4344 1.43279 8.84842 1.41529C7.26029 1.3956 5.71154 1.37591 5.58029 1.49841Z" fill="#2E9DF4"/>
<path d="M11.4384 15.4173C11.1191 15.1439 9.49374 15.9686 8.35186 17.8564C7.58624 19.123 7.52061 20.7439 8.00843 20.7702C8.49624 20.7964 8.48968 19.193 9.55061 17.7908C10.8325 16.1042 11.9 15.8133 11.4384 15.4173Z" fill="#FEFFFA"/>
<path d="M14.0809 15.3188C13.6543 15.3188 12.9893 18.1385 12.4665 18.4863C11.9437 18.8342 9.23556 18.5017 9.20493 18.8823C9.17431 19.2629 11.2152 20.8467 11.4537 21.4307C11.6921 22.0148 10.4234 24.6288 10.7734 24.8826C11.1212 25.1363 13.3065 23.3142 14.0349 23.3142C14.794 23.3142 16.7496 25.2588 17.0756 24.992C17.419 24.712 16.3165 22.157 16.4893 21.5707C16.6643 20.9845 19.0377 19.7332 18.9437 19.1645C18.8496 18.5935 16.0934 19.0223 15.5859 18.5476C15.0784 18.0729 14.5402 15.3188 14.0809 15.3188Z" fill="#F8932A"/>
</g>
<defs>
<clipPath id="clip0_2828_12354">
<rect width="28" height="28" fill="white" transform="translate(0 0.68457)"/>
</clipPath>
</defs>
</svg>
