<svg width="89" height="75" viewBox="0 0 89 75" fill="none" xmlns="http://www.w3.org/2000/svg">
<rect x="0.5" y="0.5" width="88" height="74" rx="12" fill="#FDEBE9"/>
<path d="M64.6668 48.3348C64.7035 49.7098 64.3368 51.0114 63.6768 52.1298C63.3101 52.7898 62.8152 53.3948 62.2652 53.8898C61.0002 55.0631 59.3318 55.7781 57.4801 55.8331C54.8035 55.8881 52.4385 54.5131 51.1368 52.4048C50.4401 51.3231 50.0185 50.0215 50.0002 48.6465C49.9452 46.3365 50.9718 44.2465 52.6218 42.8715C53.8685 41.8448 55.4452 41.2031 57.1685 41.1665C61.2202 41.0748 64.5752 44.2831 64.6668 48.3348Z" stroke="#E05732" stroke-width="2" stroke-miterlimit="10" stroke-linecap="round" stroke-linejoin="round"/>
<path d="M54.4736 48.5548L56.3253 50.3147L60.157 46.6113" stroke="#E05732" stroke-width="2" stroke-linecap="round" stroke-linejoin="round"/>
<path d="M28.312 29.1396L44.5003 38.508L60.5786 29.1946" stroke="#E05732" stroke-width="2" stroke-linecap="round" stroke-linejoin="round"/>
<path d="M44.5005 55.1181V38.4897" stroke="#E05732" stroke-width="2" stroke-linecap="round" stroke-linejoin="round"/>
<path d="M62.1184 32.3115V42.6882C62.1184 42.7799 62.1185 42.8532 62.1002 42.9448C60.8168 41.8265 59.1668 41.1665 57.3335 41.1665C55.6101 41.1665 54.0151 41.7715 52.7501 42.7799C51.0635 44.1182 50.0001 46.1899 50.0001 48.4999C50.0001 49.8749 50.3851 51.1765 51.0635 52.2765C51.2285 52.5699 51.4301 52.8449 51.6501 53.1016L48.2952 54.9532C46.2052 56.1266 42.7951 56.1266 40.7051 54.9532L30.9151 49.5265C28.6968 48.2982 26.8818 45.2182 26.8818 42.6882V32.3115C26.8818 29.7815 28.6968 26.7015 30.9151 25.4732L40.7051 20.0465C42.7951 18.8732 46.2052 18.8732 48.2952 20.0465L58.0851 25.4732C60.3035 26.7015 62.1184 29.7815 62.1184 32.3115Z" stroke="#E05732" stroke-width="2" stroke-linecap="round" stroke-linejoin="round"/>
</svg>
