<svg width="85" height="75" viewBox="0 0 85 75" fill="none" xmlns="http://www.w3.org/2000/svg">
<rect y="0.5" width="85" height="74" rx="12" fill="#DDF3D8"/>
<path d="M26.0183 36.0698V44.3015C26.0183 52.5332 29.3183 55.8332 37.55 55.8332H47.4316C55.6633 55.8332 58.9633 52.5332 58.9633 44.3015V36.0698" stroke="#20AE2D" stroke-width="2" stroke-linecap="round" stroke-linejoin="round"/>
<path d="M42.5 37.4998C45.855 37.4998 48.33 34.7682 48 31.4132L46.79 19.1665H38.2283L37 31.4132C36.67 34.7682 39.145 37.4998 42.5 37.4998Z" stroke="#20AE2D" stroke-width="2" stroke-linecap="round" stroke-linejoin="round"/>
<path d="M54.0682 37.4998C57.7716 37.4998 60.4849 34.4932 60.1182 30.8082L59.6049 25.7665C58.9449 20.9998 57.1116 19.1665 52.3082 19.1665H46.7166L47.9999 32.0182C48.3116 35.0432 51.0432 37.4998 54.0682 37.4998Z" stroke="#20AE2D" stroke-width="2" stroke-linecap="round" stroke-linejoin="round"/>
<path d="M30.84 37.4998C33.865 37.4998 36.5967 35.0432 36.89 32.0182L37.2934 27.9665L38.1734 19.1665H32.5817C27.7784 19.1665 25.945 20.9998 25.285 25.7665L24.79 30.8082C24.4234 34.4932 27.1367 37.4998 30.84 37.4998Z" stroke="#20AE2D" stroke-width="2" stroke-linecap="round" stroke-linejoin="round"/>
<path d="M42.5001 46.6665C39.4384 46.6665 37.9167 48.1882 37.9167 51.2498V55.8332H47.0834V51.2498C47.0834 48.1882 45.5617 46.6665 42.5001 46.6665Z" stroke="#20AE2D" stroke-width="2" stroke-linecap="round" stroke-linejoin="round"/>
</svg>
