<svg width="89" height="75" viewBox="0 0 89 75" fill="none" xmlns="http://www.w3.org/2000/svg">
<rect x="0.5" y="0.5" width="88" height="74" rx="12" fill="#EBEBFF"/>
<g clip-path="url(#clip0_2594_5938)">
<path d="M51.9494 15.0862C52.6359 14.9284 53.3546 14.9883 54.0055 15.2575C54.6565 15.5268 55.2074 15.992 55.5819 16.5887L58.9532 21.9713C59.2251 22.4049 59.5915 22.7713 60.025 23.0431L65.4076 26.4145C66.0056 26.7887 66.4719 27.34 66.7419 27.9917C67.0118 28.6434 67.0718 29.363 66.9136 30.0504L65.489 36.2368C65.3741 36.7368 65.3741 37.2563 65.489 37.7563L66.9136 43.9462C67.0703 44.6326 67.0095 45.3507 66.7396 46.001C66.4698 46.6513 66.0043 47.2015 65.4076 47.5753L60.025 50.95C59.5915 51.2219 59.2251 51.5883 58.9532 52.0218L55.5819 57.4044C55.2079 58.0017 54.6571 58.4677 54.0061 58.7375C53.3552 59.0074 52.6363 59.0678 51.9494 58.9103L45.7595 57.4858C45.2606 57.3714 44.7423 57.3714 44.2434 57.4858L38.0536 58.9103C37.3667 59.0678 36.6478 59.0074 35.9968 58.7375C35.3458 58.4677 34.7951 58.0017 34.4211 57.4044L31.0497 52.0218C30.7769 51.5879 30.4093 51.2215 29.9746 50.95L24.5953 47.5787C23.998 47.2047 23.5321 46.6539 23.2622 46.0029C22.9923 45.3519 22.9319 44.6331 23.0894 43.9462L24.5105 37.7563C24.6254 37.2563 24.6254 36.7368 24.5105 36.2368L23.086 30.0504C22.9281 29.3626 22.9886 28.6427 23.2592 27.991C23.5297 27.3393 23.9968 26.7882 24.5953 26.4145L29.9746 23.0431C30.4093 22.7717 30.7769 22.4052 31.0497 21.9713L34.4211 16.5887C34.7953 15.9927 35.3457 15.5279 35.996 15.2586C36.6463 14.9894 37.3642 14.9292 38.0502 15.0862L44.2434 16.5073C44.7423 16.6217 45.2606 16.6217 45.7595 16.5073L51.9494 15.0862Z" stroke="#0000FF" stroke-width="2"/>
<path d="M36.5718 38.8142L43.4739 45.4246L53.4285 28.5679" stroke="#0000FF" stroke-width="2" stroke-linecap="round" stroke-linejoin="round"/>
</g>
<defs>
<clipPath id="clip0_2594_5938">
<rect width="44" height="44" fill="white" transform="translate(22.5 15.5)"/>
</clipPath>
</defs>
</svg>
